# AST/ASF file generated using VICON BodyLanguage
# -----------------------------------------------
:version 1.10
:name VICON
:units
  mass 1.0
  length 0.45
  angle deg
:documentation
   .ast/.asf automatically generated from VICON data using
   VICON BodyBuilder and BodyLanguage model FoxedUp or BRILLIANT.MOD
:root
   order TX TY TZ RX RY RZ
   axis XYZ
   position 0 0 0  
   orientation 0 -0 0 
:bonedata
  begin
     id 1 
     name lhipjoint
     direction 0.432694 -0.693742 0.575759 
     length 2.19277 
     axis 0 -0 0  XYZ
  end
  begin
     id 2 
     name lfemur
     direction 0.34202 -0.939693 0  
     length 6.69022  
     axis 0 -0 20  XYZ
    dof rx ry rz
    limits (-160.0 20.0)
           (-70.0 70.0)
           (-60.0 70.0)
  end
  begin
     id 3 
     name ltibia
     direction 0.34202 -0.939693 0   
     length 6.50337   
     axis 0 -0 20   XYZ
    dof rx
    limits (-10.0 170.0)
  end
  begin
     id 4 
     name lfoot
     direction 0.158999 -0.435969 0.885805   
     length 2.70564   
     axis -90 -1.13533e-015 20   XYZ
    dof rx rz
    limits (-45.0 90.0)
           (-70.0 20.0)
  end
  begin
     id 5 
     name ltoes
     direction -0.00592919 0.00964381 0.999936   
     length 1.29929   
     axis -90 -1.13533e-015 20   XYZ
    dof rx
    limits (-90.0 20.0)
  end
  begin
     id 6 
     name rhipjoint
     direction -0.414359 -0.700339 0.581234   
     length 2.17212  
     axis 0 -0 0  XYZ 
  end
  begin
     id 7 
     name rfemur
     direction -0.34202 -0.939693 0   
     length 7.17659   
     axis 0 -0 -20   XYZ
    dof rx ry rz
    limits (-160.0 20.0)
           (-70.0 70.0)
           (-70.0 60.0)
  end
  begin
     id 8 
     name rtibia
     direction -0.34202 -0.939693 0   
     length 6.36669   
     axis 0 -0 -20   XYZ
    dof rx
    limits (-10.0 170.0)
 end
 begin
     id 9 
     name rfoot
     direction -0.137064 -0.37658 0.916188   
     length 2.22351  
     axis -90 1.13533e-015 -20   XYZ
    dof rx rz
    limits (-45.0 90.0)
           (-20.0 70.0)
  end
  begin
     id 10 
     name rtoes
     direction -0.000784077 -0.00289101 0.999996   
     length 1.09522   
     axis -90 1.13533e-015 -20   XYZ
    dof rx
    limits (-90.0 20.0)
  end
  begin
     id 11 
     name lowerback
     direction -0.0176242 0.984912 -0.172157   
     length 1.65301   
     axis 0 -0 0   XYZ
    dof rx ry rz
    limits (-20.0 45.0)
           (-30.0 30.0)
           (-30.0 30.0)
  end
  begin
     id 12 
     name upperback
     direction -0.00218128 0.998776 -0.0494072   
     length 1.67776   
     axis 0 -0 0   XYZ
    dof rx ry rz
    limits (-20.0 45.0)
           (-30.0 30.0)
           (-30.0 30.0)
  end
  begin
     id 13 
     name thorax
     direction 0.00544186 0.999658 0.0255711   
     length 1.72293   
     axis 0 -0 0   XYZ
    dof rx ry rz
    limits (-20.0 45.0)
           (-30.0 30.0)
           (-30.0 30.0)
  end
  begin
     id 14 
     name lowerneck
     direction -0.105325 0.983841 0.144785   
     length 2.14226   
     axis 0 -0 0   XYZ
    dof rx ry rz
    limits (-20.0 45.0)
           (-30.0 30.0)
           (-30.0 30.0)
  end
  begin
     id 15 
     name upperneck
     direction 0.0547957 0.988053 -0.144041   
     length 2.17508   
     axis 0 -0 0   XYZ
    dof rx ry rz
    limits (-20.0 45.0)
           (-30.0 30.0)
           (-30.0 30.0)
  end
  begin
     id 16
     name head
     direction 0.0247488 0.997534 -0.0656813  
     length 2.20048  
     axis 0 -0 0   XYZ
    dof rx ry rz
    limits (-20.0 45.0)
           (-30.0 30.0)
           (-30.0 30.0)
  end
  begin
     id 17 
     name lclavicle
     direction 0.820559 0.567247 -0.0701026  
     length 4.09615  
     axis 0 -0 0   XYZ
    dof ry rz
    limits (-20.0 10.0)
           (0.0 20.0)
  end
  begin
     id 18 
     name lhumerus
     direction 0.999977 -0.0067566 -9.96392e-005   
     length 4.59333   
     axis -180 -30 -90   XYZ
    dof rx ry rz
    limits (-60.0 90.0)
           (-90.0 90.0)
           (-90.0 90.0)
  end
  begin
     id 19
     name lradius
     direction 1 -4.48982e-011 -2.53425e-027   
     length 2.81151   
     axis -180 -30 -90   XYZ
    dof rx
    limits (-10.0 170.0)
  end
  begin
     id 20
     name lwrist
     direction 1 -4.48939e-011 -7.39254e-028   
     length 1.40576   
     axis 2.56395e-016 90 90   XYZ
    dof ry
    limits (-180.0 0.0)
 end
  begin
     id 21 
     name lhand
     direction 1 -4.48939e-011 -1.47851e-027   
     length 0.895651   
     axis 9.43423e-016 90 90   XYZ
    dof rx rz
    limits (-90.0 90.0)
           (-45.0 45.0)
  end
  begin
     id 22 
     name lfingers
     direction 1 -4.48978e-011 -2.95702e-027   
     length 0.722097   
     axis 1.88685e-015 90 90   XYZ
    dof rx
    limits (0.0 90.0)
  end
  begin
     id 23
     name lthumb
     direction 0.707107 -6.34931e-011 0.707107   
     length 1.03679   
     axis -90 45 -9.86935e-015   XYZ
    dof rx rz
    limits (-45.0 45.0)
           (-45.0 45.0)
  end
  begin
     id 24 
     name rclavicle
     direction -0.831414 0.553102 -0.0531864   
     length 4.24872  
     axis 0 -0 0   XYZ 
    dof ry rz
    limits (-10.0 20.0)
           (-20.0 0.0)
  end
  begin
     id 25 
     name rhumerus
     direction -0.999916 -0.000939607 0.0129331  
     length 4.74834   
     axis -180 30 90   XYZ
    dof rx ry rz
    limits (-90.0 60.0)
           (-90.0 90.0)
           (-90.0 90.0)
  end
  begin
     id 26 
     name rradius
     direction -1 -4.48956e-011 -1.31752e-027   
     length 2.79907   
     axis -180 30 90   XYZ
    dof rx
    limits (-10.0 170.0)
  end
  begin
     id 27 
     name rwrist
     direction -1 -4.4897e-011 -7.39254e-028   
     length 1.39954   
     axis 2.56395e-016 -90 -90   XYZ
    dof ry
    limits (-180.0 0.0)
  end
  begin
     id 28
     name rhand
     direction -0.999997 -0.00250697 0.000800838   
     length 0.953304   
     axis 9.43423e-016 -90 -90   XYZ
    dof rx rz
    limits (-90.0 90.0)
           (-45.0 45.0)
  end
  begin
     id 29
     name rfingers
     direction -1 -4.48954e-011 -2.95702e-027   
     length 0.763342   
     axis 1.88685e-015 -90 -90   XYZ
    dof rx
    limits (0.0 90.0)
  end
  begin
     id 30
     name rthumb
     direction -0.709701 -0.00217037 0.7045   
     length 1.10115   
     axis -90 -45 9.86935e-015   XYZ
    dof rx rz
    limits (-45.0 45.0)
           (-45.0 45.0)
  end
:hierarchy
  begin
    root lhipjoint rhipjoint lowerback
    lhipjoint lfemur
    lfemur ltibia
    ltibia lfoot
    lfoot ltoes
    rhipjoint rfemur
    rfemur rtibia
    rtibia rfoot
    rfoot rtoes
    lowerback upperback
    upperback thorax
    thorax lowerneck lclavicle rclavicle
    lowerneck upperneck
    upperneck head
    lclavicle lhumerus
    lhumerus lradius
    lradius lwrist
    lwrist lhand lthumb
    lhand lfingers
    rclavicle rhumerus
    rhumerus rradius
    rradius rwrist
    rwrist rhand rthumb
    rhand rfingers
  end

#!OML:ASF G:\ViconDB\ViconDB\414\test\team2\shane.ASF
:FULLY-SPECIFIED
:DEGREES
17
root -2.72525 16.2965 -42.9216 7.13574 10.3828 -9.49759
lowerback 14.3615 -3.71369 -0.730079
upperback 7.27566 -4.88742 2.37946
thorax -0.0706986 -2.49758 3.57367
lowerneck -18.4626 -2.75481 -10.6588
upperneck 20.9506 -1.06763 1.58221
head 9.8097 -1.16629 2.16403
rclavicle -2.06736e-014 -6.36111e-015
rhumerus -49.2612 2.5024 -77.1811
rradius 38.7683
rwrist 38.6263
rhand -37.2915 -19.2499
rfingers 7.12502
rthumb -10.3559 -48.9749
lclavicle -2.06736e-014 -6.36111e-015
lhumerus -18.5946 -40.2546 96.151
lradius 30.08
lwrist -19.6148
lhand -45.2578 2.72639
lfingers 7.12502
lthumb -18.0317 31.9105
rfemur -19.2131 -20.9924 23.0763
rtibia 49.4455
rfoot -27.6736 -11.0783
rtoes -9.15969
lfemur -9.67995 15.29 -1.78292
ltibia 39.0532
lfoot -42.5899 -11.0217
ltoes -16.3653
18
root -2.73326 16.2594 -42.8364 7.1164 9.68413 -9.32306
lowerback 14.2757 -3.59992 -0.792703
upperback 7.36918 -4.75422 2.10368
thorax 0.0439634 -2.42987 3.29243
lowerneck -18.3495 -2.77783 -10.6547
upperneck 21.0923 -1.03923 1.28467
head 9.83922 -1.19232 2.06337
rclavicle -2.06736e-014 -6.36111e-015
rhumerus -49.2612 2.5024 -77.1811
rradius 38.7683
rwrist 38.6263
rhand -37.2915 -19.2499
rfingers 7.12502
rthumb -10.3559 -48.9749
lclavicle 2.78299e-014 -7.95139e-015
lhumerus -17.6435 -38.8099 95.0748
lradius 30.8993
lwrist -16.4812
lhand -44.8215 -0.438898
lfingers 7.12502
lthumb -17.6118 28.7834
rfemur -18.2336 -20.6705 22.4989
rtibia 49.411
rfoot -27.8048 -11.1764
rtoes -9.42066
lfemur -9.03704 15.1608 -1.92875
ltibia 39.1899
lfoot -43.0216 -10.2943
ltoes -16.553
19
root -2.76261 16.2298 -42.7665 7.40321 9.69326 -9.39698
lowerback 14.2366 -3.70154 -0.791951
upperback 7.23837 -4.8866 2.13588
thorax -0.0621678 -2.49424 3.34588
lowerneck -18.1622 -2.77894 -10.8919
upperneck 21.2511 -0.904291 0.92847
head 9.859 -1.19643 1.99601
rclavicle -7.4743e-014 5.24792e-014
rhumerus -50.1354 1.85047 -71.7599
rradius 40.0115
rwrist 36.3574
rhand -37.0278 -21.5912
rfingers 7.12502
rthumb -10.1014 -51.3287
lclavicle -7.4743e-014 5.24792e-014
lhumerus -17.34 -37.8349 94.2801
lradius 31.1381
lwrist -18.3473
lhand -46.7565 2.6254
lfingers 7.12502
lthumb -19.4732 31.6703
rfemur -17.8593 -20.7692 22.7125
rtibia 49.311
rfoot -27.9999 -11.9987
rtoes -10.9645
lfemur -9.17554 15.2432 -1.62914
ltibia 39.4312
lfoot -43.3576 -10.4427
ltoes -16.6018
20
root -2.77755 16.1916 -42.6852 7.47556 9.12896 -9.29916
lowerback 14.2341 -3.63408 -0.810076
upperback 7.22357 -4.80522 1.93127
thorax -0.0994939 -2.44966 3.13238
lowerneck -17.9945 -2.77969 -11.1328
upperneck 21.5142 -0.811614 0.770279
head 9.92164 -1.20152 1.99412
rclavicle -1.59028e-014 1.43125e-014
rhumerus -50.139 1.46652 -68.7594
rradius 40.7207
rwrist 34.2115
rhand -37.2069 -20.4753
rfingers 7.12502
rthumb -10.2742 -50.2044
lclavicle -1.59028e-014 1.43125e-014
lhumerus -16.9328 -36.8981 93.2487
lradius 31.844
lwrist -17.2034
lhand -46.854 2.57332
lfingers 7.12502
lthumb -19.5669 31.6087
rfemur -17.0922 -20.6092 22.4274
rtibia 49.135
rfoot -28.6037 -11.9776
rtoes -12.099
lfemur -8.69362 15.0539 -1.64121
ltibia 39.5779
lfoot -43.816 -9.7616
ltoes -16.7945
21
root -2.80875 16.1408 -42.6176 7.73048 8.90728 -9.4296
lowerback 14.3794 -3.66883 -0.762657
upperback 7.03281 -4.844 1.87618
thorax -0.384871 -2.46151 3.07312
lowerneck -17.7051 -2.73215 -10.9493
upperneck 21.6681 -0.662475 0.0818399
head 9.91697 -1.20364 1.74307
rclavicle 8.34896e-014 -4.29375e-014
rhumerus -49.8522 1.17134 -65.6297
rradius 41.2648
rwrist 33.5868
rhand -37.0636 -20.8081
rfingers 7.12502
rthumb -10.136 -50.5439
lclavicle 8.34896e-014 -4.29375e-014
lhumerus -16.7711 -35.902 92.2632
lradius 32.6821
lwrist -15.9427
lhand -47.9246 3.60259
lfingers 7.12502
lthumb -20.5959 32.5299
rfemur -16.7509 -20.8244 22.7047
rtibia 48.8676
rfoot -29.0608 -12.6752
rtoes -13.8253
lfemur -8.75198 16.0451 -1.12417
ltibia 39.838
lfoot -44.1522 -10.6252
ltoes -16.8419
